<svg class="svg-icon" style="width: 1em; height: 1em;vertical-align: middle;fill: currentColor;overflow: hidden;" viewBox="0 0 1024 1024" version="1.1" xmlns="http://www.w3.org/2000/svg"><path d="M815.4 448c-6.8 0-29.6 0.2-36 0.6l-129.8 3.4c-1.4 0-2.8-0.6-3.4-1.8L451.6 158.8c-5.8-9.2-16.2-14.8-27-14.8h-47.4c-11.2 0-15 11.2-11 21.6l100.2 285.6c1 2.6-0.8 5.4-3.6 5.4L218 460.2c-5.2 0.2-10-2.2-13.2-6.2l-74-90c-6-7.8-15.4-12.2-25.2-12.2H72c-5.6 0-9.4 5.4-7.6 10.6l39.8 137.4c3 7.6 3 16.2 0 23.8l-39.8 137.4c-1.8 5.2 2 10.6 7.6 10.6h33.4c9.8 0 19.2-4.6 25.2-12.2L206 568c3.2-4 8.2-6.4 13.2-6.2l243.4 5.4c2.8 0.2 4.6 2.8 3.6 5.4L366 858.4c-4 10.4-0.2 21.6 11 21.6h47.4c11 0 21.2-5.6 27-14.8L646.2 574c0.8-1.2 2-1.8 3.4-1.8l129.8 3.4c6.6 0.4 29.2 0.6 36 0.6 88.6 0 144.6-28.6 144.6-64S904.2 448 815.4 448z"  /></svg>